<?xml version="1.0" encoding="utf-8"?>
<!-- Generator: Adobe Illustrator 17.1.0, SVG Export Plug-In . SVG Version: 6.00 Build 0)  -->
<!DOCTYPE svg PUBLIC "-//W3C//DTD SVG 1.1//EN" "http://www.w3.org/Graphics/SVG/1.1/DTD/svg11.dtd">
<svg version="1.1" xmlns="http://www.w3.org/2000/svg" xmlns:xlink="http://www.w3.org/1999/xlink" x="0px" y="0px"
	 viewBox="0 0 1024 1024" enable-background="new 0 0 1024 1024" xml:space="preserve">
<g id="Laag_2" display="none">
	<rect x="386.1" y="482.7" display="inline" fill="#FFFFFF" width="247.1" height="281"/>
	<path display="inline" fill="#1B75BB" d="M875,604.9c-19.7-9.2-39.3-18.5-59.2-27.3c-7.4-3.3-10.9-8.2-11.7-16
		c-0.9-8.3-2-16.7-4.1-24.8c-1.9-7.3-0.1-12.5,5.2-17.6c16.1-15.4,32.1-30.9,48-46.5c9.3-9.2,11.3-19.3,5.2-30.8
		c-7.7-14.6-15.9-28.9-24.5-42.9c-7.4-11.9-16.7-15.1-30.4-11.4c-20.7,5.5-41.5,10.9-62,16.9c-7.9,2.3-14.1,1.5-19.9-4.6
		c-4.7-4.9-9.8-9.8-15.5-13.2c-10.6-6.3-11.8-15.2-10.4-26.2c2.6-20,4.4-40.1,6.2-60.2c1.2-13.7-3.6-21.9-16.5-27.1
		c-14.3-5.8-28.7-11.2-43.4-16.1c-15.7-5.2-24.4-2-33.7,11.4c-12.3,17.6-24.7,35.2-36.7,53c-4.1,6.1-9.2,8.6-16.5,8.2
		c-7.8-0.5-15.8-0.8-23.6-0.1c-8.6,0.7-14.3-2.2-19-9.4c-11.9-18.2-24.2-36.1-36.5-54c-7.1-10.3-16.7-14.7-27.8-11.2
		c-17.2,5.5-34.2,11.6-50.8,18.4c-10.9,4.4-15.5,14.5-14.3,26.3c2.1,21.1,3.9,42.2,5.4,57.8c1.2,18.8,1.1,18.7-9.4,27.2
		c-5.7,4.6-11.5,9.2-16.8,14.3c-5.4,5.2-11,6-18,3.9c-20-6-40.2-11.5-60.3-17.2c-17.2-4.9-25.5-2.1-35.2,13.3
		c-7.9,12.6-15.4,25.6-22.4,38.7c-7.2,13.4-5.5,22.6,5.2,33.3c15.4,15.4,30.7,30.9,46.4,46c5.4,5.2,6.8,10.6,5.2,17.7
		c-1.8,7.6-3.8,15.3-4.3,23.1c-0.6,8.8-4.8,13.6-12.6,16.9c-20,8.5-39.7,17.6-59.5,26.5c-11.1,5.1-17.4,14.6-15.8,25.5
		c2.5,17.3,5.5,34.6,8.9,51.8c2.5,12.2,10,18.6,22.2,19.7c22.7,2.2,45.4,4.2,68.1,5.9c6.8,0.5,11.2,3.3,14.3,9.2
		c4.1,7.9,8.5,15.7,13.3,23.2c3.8,5.9,4,11.4,0.9,17.7c-9.8,19.7-19.3,39.5-28.8,59.3c-6.2,13.1-4.7,22.9,5.9,32.6
		c11.2,10.3,22.7,20.2,34.6,29.6c14,11.1,22.5,10.9,36.9,0.8c17.4-12.2,34.7-24.4,52-36.8c5.7-4.1,11.1-4.7,17.6-1.9
		c7.6,3.4,15.5,6.4,23.5,8.7c7.7,2.2,11.6,6.8,13.4,14.5c4.9,21.1,10.4,42.1,15.8,63.2c3.4,13.5,11.9,20.5,25.9,20.8
		c16,0.3,32,0.4,47.9,0.1c13.9-0.3,21.5-6.7,25.2-20.3c5.7-21.2,11.6-42.4,16.9-63.7c1.8-7.3,5.7-11.2,12.7-13.3
		c8-2.4,16-5,23.6-8.3c7.4-3.3,13.3-2.1,19.6,2.6c17.2,12.9,34.7,25.3,52.2,37.8c11.6,8.3,21.9,8.6,33.2-0.1
		c12.2-9.4,24.2-19.3,35.8-29.5c12.1-10.7,13.7-20.2,6.7-35.1c-9-19.2-18-38.4-27.2-57.5c-3.1-6.5-3.1-12.2,1.1-18.4
		c5-7.4,9.4-15.1,13.5-23c3.1-5.9,7.3-8.9,14.1-9.3c20.9-1.2,41.8-3,62.7-4.4c18.2-1.2,25.6-6.8,29.4-24.5
		c3.2-14.8,5.8-29.8,7.9-44.8C892.7,619.1,887.9,611,875,604.9z"/>
	<path display="inline" fill="#1B75BB" d="M680.1,750.1h-90.8V580.2c0-29.2-3.9-49.9-11.6-62.1c-7.7-12.2-22.1-18.3-43.2-18.3
		c-6.5,0-13.4,0.3-20.7,0.9c-7.3,0.6-13.8,1.3-19.5,2.1v247.3h-90.8V440.7c15.4-4.5,35.3-8.6,59.7-12.5c24.4-3.9,49.9-5.8,76.7-5.8
		c27.2,0,49.8,3.6,67.9,10.7c18.1,7.1,32.4,17.2,42.9,30.2c10.6,13,18.1,28.4,22.5,46.3c4.5,17.9,6.7,37.8,6.7,59.7V750.1z"/>
</g>
<g id="Laag_3">
	<path fill="#1B75BB" d="M388.3,385.3c-1.1-12.4-2.6-29.2-4.3-46.1c-0.9-9.4,2.7-17.4,11.4-20.9c13.3-5.4,26.8-10.3,40.5-14.6
		c8.9-2.8,16.5,0.7,22.1,8.9c9.8,14.3,19.6,28.5,29.1,43c3.8,5.8,8.3,8.1,15.2,7.5c6.2-0.5,12.5-0.3,18.8,0.1
		c5.8,0.4,9.9-1.6,13.2-6.5c9.6-14.2,19.4-28.1,29.2-42.2c7.4-10.7,14.4-13.3,26.9-9.1c11.6,3.9,23.2,8.2,34.5,12.8
		c10.3,4.2,14.1,10.7,13.1,21.6c-1.4,16-2.9,32-4.9,47.9c-1.1,8.8-0.2,15.9,8.3,20.9c4.6,2.7,8.6,6.6,12.4,10.5
		c4.7,4.9,9.6,5.5,15.9,3.7c16.4-4.7,32.9-9,49.4-13.4c10.9-2.9,18.3-0.4,24.2,9.1c6.9,11.2,13.4,22.6,19.5,34.2
		c4.8,9.1,3.2,17.2-4.2,24.5c-12.6,12.5-25.4,24.8-38.2,37.1c-4.2,4-5.6,8.2-4.2,14c1.6,6.4,2.5,13.1,3.3,19.7
		c0.7,6.2,3.5,10.1,9.4,12.7c15.8,7,31.5,14.4,47.1,21.7c10.2,4.8,14,11.3,12.4,22.6c-1.7,11.9-3.8,23.9-6.3,35.7
		c-3,14.1-8.9,18.5-23.4,19.5c-16.7,1.1-33.3,2.5-49.9,3.5c-5.5,0.3-8.8,2.7-11.2,7.4c-3.3,6.3-6.8,12.5-10.8,18.3
		c-3.3,4.9-3.3,9.5-0.8,14.7c7.3,15.2,14.5,30.5,21.6,45.8c5.6,11.8,4.3,19.5-5.3,27.9c-9.2,8.1-18.8,16-28.5,23.5
		c-9,6.9-17.2,6.7-26.4,0.1c-13.9-10-27.8-19.9-41.5-30.1c-5-3.8-9.7-4.7-15.6-2.1c-6.1,2.7-12.5,4.7-18.8,6.6
		c-5.5,1.7-8.7,4.8-10.1,10.6c-4.2,17-8.9,33.8-13.4,50.7c-2.9,10.9-9,16-20,16.2c-12.7,0.2-25.4,0.2-38.2-0.1
		c-11.1-0.2-17.9-5.8-20.6-16.5c-4.3-16.7-8.6-33.5-12.6-50.3c-1.4-6.2-4.5-9.8-10.7-11.6c-6.4-1.8-12.6-4.3-18.7-6.9
		c-5.2-2.3-9.5-1.8-14,1.5c-13.7,9.9-27.6,19.6-41.4,29.3c-11.5,8.1-18.3,8.2-29.4-0.6c-9.5-7.5-18.7-15.4-27.6-23.6
		c-8.5-7.8-9.7-15.6-4.7-26c7.5-15.8,15.1-31.6,23-47.2c2.5-5,2.3-9.3-0.7-14.1c-3.8-6-7.3-12.2-10.6-18.4c-2.5-4.7-6-6.9-11.4-7.3
		c-18.1-1.3-36.2-3-54.2-4.7c-9.7-0.9-15.7-6-17.7-15.7c-2.8-13.7-5.1-27.4-7.1-41.2c-1.3-8.7,3.7-16.3,12.5-20.3
		c15.7-7.2,31.5-14.3,47.4-21.1c6.2-2.7,9.6-6.5,10.1-13.5c0.4-6.2,2-12.3,3.4-18.4c1.3-5.6,0.1-10-4.1-14.1
		c-12.5-12-24.7-24.3-36.9-36.6c-8.5-8.5-9.9-15.8-4.2-26.5c5.6-10.5,11.5-20.8,17.8-30.8c7.7-12.2,14.3-14.5,28-10.6
		c16,4.6,32.1,9,48.1,13.7c5.6,1.7,10,1,14.3-3.1c4.2-4.1,8.8-7.7,13.3-11.4C389.2,400.3,389.3,400.3,388.3,385.3z M389.6,573.7
		c0.4,68,54,120.8,122.4,120.5c65.7-0.2,118.7-55.2,118.3-122.7C630,506,575.1,453.1,508,453.5C443.2,453.8,389.3,508.5,389.6,573.7
		z"/>
</g>
<g id="Laag_1" shape-rendering="geometricPrecision" text-rendering="geometricPrecision" image-rendering="optimizeQuality">
	<title>document_gear icon</title>
	<desc>document_gear icon from the IconExperience.com O-Collection. Copyright by INCORS GmbH (www.incors.com).</desc>
	<path id="curve1" fill="#314770" d="M128,64h523c35.2,0,65.6,12.6,90.5,37.5l117,117c24.9,24.9,37.5,55.3,37.5,90.5v651H128V64z
		 M704,160v96h96L704,160z M192,128v768h640V352c0-17.6-14.4-32-32-32H640V160c0-17.6-14.4-32-32-32H192z"/>
	<path id="curve0" display="none" fill="#314770" d="M628.1,419.8c6.3,4.8,12.3,9.9,18,15.3c2.4,2.3,5.6,3.1,8.8,2.2l50.2-13.6
		c7.8-2.2,15.7,0.8,20.2,7.5c7.3,11,13.4,21.7,19.2,33.6c3.5,7.2,2,15.5-3.8,21.2l-37.3,36.2c-2.4,2.3-3.3,5.5-2.6,8.7
		c1.8,7.7,3.1,15.5,4,23.4c0.3,3.3,2.2,5.9,5.2,7.3l47.3,21.8c7.3,3.4,11.5,10.8,10.6,18.8c-1.5,13.1-3.7,25.2-6.9,38
		c-2,7.8-8.5,13.2-16.5,13.8l-52,3.8c-3.3,0.2-6,2-7.5,5c-3.6,7-7.6,13.8-12,20.3c-1.8,2.8-2.1,6.1-0.7,9.1l22.2,47
		c3.4,7.3,1.9,15.6-4,21.2c-9.5,9.1-19.1,17-29.8,24.7c-6.6,4.7-15,4.7-21.5,0L597,754.6c-2.7-2-6-2.4-9-1.1
		c-7.2,3.1-14.6,5.7-22.1,7.9c-3.2,0.9-5.5,3.3-6.3,6.5l-13.3,50.3c-2.1,7.8-8.6,13.1-16.6,13.6c-13.2,0.9-25.7,0.8-38.9-0.2
		c-8-0.7-14.4-6.1-16.4-13.9l-12.7-50.5c-0.8-3.2-3.1-5.6-6.3-6.6c-7.4-2.2-14.6-4.9-21.7-8.1c-3-1.3-6.3-1-9,0.9l-42.5,30
		c-6.6,4.7-15.1,4.6-21.5-0.2c-10.7-7.9-20.2-15.9-29.7-25.2c-5.7-5.6-7.2-13.9-3.7-21.2l22.8-46.9c1.4-3,1.2-6.2-0.6-9
		c-4.2-6.5-8-13.1-11.4-20c-1.5-3-4.2-4.8-7.5-5.1l-52-4.3c-8-0.7-14.4-6.2-16.3-14c-3.1-13-5.2-25.2-6.5-38.5
		c-0.8-8,3.4-15.3,10.8-18.5l47.5-21.3c3.1-1.4,5-4,5.4-7.3c0.9-7.7,2.3-15.2,4.1-22.7c0.8-3.2-0.1-6.4-2.5-8.7l-37-36.7
		c-5.7-5.7-7.1-14-3.5-21.3c5.9-11.9,12.1-22.6,19.6-33.6c4.6-6.6,12.5-9.5,20.3-7.3l50.1,14.3c3.2,0.9,6.3,0.1,8.8-2.2
		c5.6-5.3,11.5-10.2,17.8-14.8c2.6-2,4-4.9,3.7-8.2l-4.8-52c-0.7-8,3.6-15.3,10.9-18.5c12.1-5.4,23.8-9.6,36.6-13.2
		c7.7-2.1,15.7,0.7,20.2,7.4l29.2,43.1c1.9,2.8,4.8,4.2,8.1,4c7.8-0.4,15.6-0.4,23.4,0.1c3.3,0.3,6.3-1.2,8.2-3.9l29.8-42.9
		c4.5-6.6,12.5-9.4,20.2-7.1c12.7,3.7,24.3,8,36.3,13.4c7.4,3.3,11.6,10.6,10.8,18.6l-5.3,51.8C624.1,414.8,625.4,417.8,628.1,419.8
		z M512,480c-53,0-96,43-96,96s43,96,96,96s96-43,96-96S565,480,512,480z"/>
</g>
</svg>
